<?xml version="1.0" standalone="no"?>
<!DOCTYPE svg PUBLIC "-//W3C//DTD SVG 20010904//EN"
 "http://www.w3.org/TR/2001/REC-SVG-20010904/DTD/svg10.dtd">
<svg version="1.0" xmlns="http://www.w3.org/2000/svg"
 width="512.000000pt" height="512.000000pt" viewBox="0 0 512.000000 512.000000"
 preserveAspectRatio="xMidYMid meet">

<g transform="translate(0.000000,512.000000) scale(0.100000,-0.100000)"
fill="#000000" stroke="none">
<path d="M2226 4250 c-192 -250 -351 -464 -353 -475 -3 -15 369 -2131 391
-2227 2 -10 1 -18 -3 -18 -4 0 -48 111 -98 247 -50 137 -236 639 -412 1118
-177 478 -325 873 -329 877 -5 5 -241 7 -526 6 l-517 -3 931 -1405 c512 -773
1007 -1519 1100 -1659 l168 -254 204 309 c571 864 1119 1695 1151 1746 l37 58
-343 0 -342 0 -42 -113 c-23 -61 -111 -296 -194 -521 -84 -226 -154 -405 -156
-399 -2 6 12 98 31 204 19 107 58 327 86 489 27 162 52 305 55 318 l5 22 -240
0 -240 0 -2 -22 c-2 -13 -5 467 -8 1067 l-5 1090 -349 -455z"/>
</g>
</svg>
